<?xml version="1.0" encoding="UTF-8"?>
<svg xmlns="http://www.w3.org/2000/svg" xmlns:xlink="http://www.w3.org/1999/xlink" width="35pt" height="35pt" viewBox="0 0 75 75" version="1.1">
<g id="surface1">
<path style=" stroke:none;fill-rule:nonzero;fill:rgb(0%,0%,0%);fill-opacity:1;" d="M 72.410156 52.109375 C 72.070312 51.4375 71.445312 51.191406 70.773438 51.035156 C 69.558594 50.753906 68.328125 50.511719 67.070312 50.597656 C 66.441406 50.636719 65.8125 50.761719 65.183594 50.851562 C 65.109375 50.863281 65.035156 50.867188 64.890625 50.882812 C 65.027344 50.660156 65.128906 50.488281 65.234375 50.324219 C 65.816406 49.425781 66.0625 48.421875 66.191406 47.371094 C 66.550781 44.402344 66.230469 41.472656 65.707031 38.550781 C 65.332031 36.46875 65.058594 34.363281 64.589844 32.308594 C 64.121094 30.222656 63.511719 28.167969 62.875 26.125 C 62.0625 23.511719 61.246094 20.890625 60.277344 18.332031 C 59.488281 16.261719 58.503906 14.265625 57.550781 12.261719 C 56.78125 10.648438 55.933594 9.074219 55.105469 7.496094 C 54.460938 6.269531 53.789062 5.066406 53.128906 3.851562 C 53.082031 3.769531 53.03125 3.691406 52.980469 3.609375 C 52.9375 3.601562 52.890625 3.59375 52.84375 3.585938 C 52.589844 4.320312 52.296875 5.046875 52.089844 5.796875 C 51.324219 8.550781 51.460938 11.316406 51.976562 14.097656 C 52.660156 17.789062 53.304688 21.488281 53.941406 25.1875 C 54.394531 27.816406 54.828125 30.449219 55.585938 33.019531 C 56.042969 34.578125 56 36.136719 55.40625 37.6875 C 54.792969 39.285156 54.214844 40.894531 53.199219 42.289062 C 52.894531 42.710938 52.472656 43.050781 52.113281 43.433594 C 51.285156 44.3125 50.445312 45.175781 49.644531 46.082031 C 48.964844 46.847656 48.324219 47.652344 47.695312 48.464844 C 47.464844 48.753906 47.230469 48.894531 46.867188 48.832031 C 45.691406 48.636719 44.503906 48.496094 43.339844 48.246094 C 41.777344 47.910156 40.207031 47.578125 38.679688 47.109375 C 34.691406 45.886719 30.753906 44.714844 26.804688 43.375 C 25.613281 42.972656 24.53125 42.234375 23.398438 41.652344 C 23.277344 41.589844 23.160156 41.535156 22.980469 41.453125 C 22.886719 42.09375 23.183594 42.566406 23.480469 43.015625 C 38.863281 48.671875 43.925781 52.261719 19.035156 55.210938 C 17.503906 55.390625 17.695312 56.144531 17.476562 56.375 C 17.757812 56.347656 18.042969 56.332031 18.324219 56.292969 C 20.386719 55.976562 22.441406 55.605469 24.511719 55.359375 C 26.691406 55.105469 28.882812 54.964844 31.074219 54.785156 C 32.394531 54.675781 33.722656 54.441406 35.035156 54.511719 C 36.707031 54.605469 38.363281 54.933594 40.023438 55.175781 C 40.613281 55.265625 41.191406 55.417969 41.777344 55.542969 C 42.207031 55.632812 42.363281 55.855469 42.21875 56.269531 C 41.664062 57.882812 40.917969 59.410156 39.871094 60.753906 C 39.539062 61.1875 38.921875 61.480469 38.371094 61.65625 C 36.667969 62.1875 34.945312 62.683594 33.207031 63.097656 C 29.09375 64.078125 24.976562 65.042969 20.839844 65.929688 C 17.183594 66.710938 13.5 67.371094 9.832031 68.089844 C 8.441406 68.363281 7.027344 68.324219 5.621094 68.371094 C 4.105469 68.417969 2.597656 68.578125 1.082031 68.683594 C 0.738281 68.703125 0.394531 68.703125 0.046875 68.714844 C 0.03125 68.761719 0.015625 68.8125 0 68.859375 C 0.582031 69.148438 1.152344 69.484375 1.753906 69.722656 C 3.582031 70.449219 5.507812 70.785156 7.457031 70.976562 C 12.519531 71.476562 17.605469 71.527344 22.691406 71.40625 C 26.816406 71.308594 30.929688 71.054688 35.011719 70.4375 C 37.808594 70.011719 40.59375 69.488281 43.394531 69.085938 C 45.972656 68.714844 48.550781 68.371094 51.089844 67.78125 C 53.105469 67.3125 54.882812 66.351562 56.578125 65.210938 C 57.042969 64.902344 57.5 64.59375 57.949219 64.269531 C 58.519531 63.855469 58.914062 63.316406 59.019531 62.601562 C 59.054688 62.359375 59.160156 62.257812 59.414062 62.253906 C 60.039062 62.238281 60.660156 62.191406 61.28125 62.171875 C 61.453125 62.164062 61.613281 62.152344 61.753906 62.101562 C 66.21875 61.675781 70.441406 59.246094 72.753906 55.421875 C 73.214844 54.902344 73.851562 54.625 74.417969 54.242188 C 74.621094 54.101562 74.8125 53.933594 75.042969 53.75 C 74.558594 53.285156 74.066406 52.9375 73.480469 52.808594 C 73.015625 52.710938 72.632812 52.550781 72.410156 52.109375 Z M 72.410156 52.109375 "/>
</g>
</svg>
